<?xml version="1.0" standalone="no"?>
<!DOCTYPE svg PUBLIC "-//W3C//DTD SVG 20010904//EN"
 "http://www.w3.org/TR/2001/REC-SVG-20010904/DTD/svg10.dtd">
<svg version="1.0" xmlns="http://www.w3.org/2000/svg"
 width="988.000000pt" height="988.000000pt" viewBox="0 0 988.000000 988.000000"
 preserveAspectRatio="xMidYMid meet">

<g transform="translate(0.000000,988.000000) scale(0.100000,-0.100000)"
fill="#000000" stroke="none">
<path d="M4440 7770 l0 -500 500 0 500 0 0 500 0 500 -500 0 -500 0 0 -500z
m370 230 c0 -126 2 -230 6 -230 3 0 32 18 65 40 l59 41 59 -41 c33 -22 62 -40
65 -40 4 0 6 104 6 230 l0 230 163 -2 162 -3 0 -455 0 -455 -457 -3 -458 -2 0
460 0 460 165 0 165 0 0 -230z m210 45 c0 -102 -3 -185 -7 -185 -5 0 -19 9
-33 20 -14 11 -32 20 -40 20 -8 0 -26 -9 -40 -20 -14 -11 -28 -20 -32 -20 -5
0 -8 83 -8 185 l0 185 80 0 80 0 0 -185z"/>
</g>
</svg>
